<svg xmlns="http://www.w3.org/2000/svg" width="1024pt" height="1024pt" viewBox="0 0 1024 1024" preserveAspectRatio="xMidYMid meet">
    <g transform="translate(0,1024) scale(0.1,-0.1)" fill="#1C4D36" stroke="none">
        <path d="M4890 8749c-709-42-1392-407-1867-999-329-410-524-884-600-1460-21-164-31-1436-13-1680 13-180 56-446 99-610 82-320 241-645 452-926 98-131 368-401 498-499 360-271 766-448 1206-526 150-27 535-38 708-20 576 60 1150 324 1556 716 421 408 673 864 795 1441 63 301 80 626 73 1404-5 572-12 666-67 941-40 196-80 334-142 492-217 551-575 989-1066 1304-489 313-1045 457-1632 422zm411-339c805-82 1524-590 1885-1335 133-275 211-551 246-870 18-170 18-1512 0-1675-36-318-126-638-245-875-233-466-625-848-1107-1079-346-165-683-235-1080-223-740 23-1419 411-1853 1060-195 291-321 655-374 1073-21 167-31 1324-14 1594 37 578 212 1051 539 1460 502 626 1240 947 2003 870z"/>
        <path d="M5032 7642c-57-188-239-752-335-1039-24-73-42-134-40-137 3-2 63 15 134 40 71 24 132 44 135 44 11 0-3-1724-15-1790-30-170-63-251-131-321-63-65-135-87-234-70-199 34-376 221-437 461-7 27-14 212-19 460-4 235-13 443-19 480-76 423-310 758-651 930-64 32-180 75-180 66 0-1 30-47 66-101 117-175 205-368 254-559 65-255 80-415 80-896 0-201 5-408 10-460 39-366 138-490 600-750 263-147 393-246 509-387 120-146 164-242 272-596 34-114 66-204 70-200 4 5 22 55 39 113 126 416 163 508 268 654 112 155 244 258 535 415 223 120 295 169 398 271 180 177 208 311 209 967 0 369 10 525 45 718 45 242 149 499 288 708l65 98-31-6c-96-20-298-149-409-259-199-199-319-431-369-716-17-95-22-182-29-510-9-439-12-467-78-600-45-91-161-214-240-254-123-62-232-68-325-18-102 55-154 159-188 379-11 64-26 1773-16 1773 2 0 55-18 118-39 129-44 155-50 152-36-1 6-51 165-111 355-61 190-151 480-202 645-116 382-110 365-119 365-5 0-35-89-69-198z"/>
    </g>
</svg>